HIERARCHY
ROOT Hips
{
  OFFSET 1.44925e-005 102.336 -0.101585
  CHANNELS 6 Xposition Yposition Zposition Zrotation Xrotation Yrotation
  JOINT LeftUpLeg
  {
    OFFSET 8.9458 -8.66707 0.101652
    CHANNELS 3 Zrotation Xrotation Yrotation
    JOINT LeftLeg
    {
      OFFSET 0 -44.4227 1.3727
      CHANNELS 3 Zrotation Xrotation Yrotation
      JOINT LeftFoot
      {
        OFFSET -0.253549 -42.0924 -1.46059
        CHANNELS 3 Zrotation Xrotation Yrotation
        JOINT LeftToes
        {
          OFFSET -0.04 -4.41509 8.4991
          CHANNELS 3 Zrotation Xrotation Yrotation
          End Site
          {
            OFFSET 0.08 -0.047448 9.77979
          }
        }
      }
    }
  }
  JOINT Spine
  {
    OFFSET 0 11.8905 0
    CHANNELS 3 Zrotation Xrotation Yrotation
    JOINT Spine1
    {
      OFFSET 0 25.6574 0.127663
      CHANNELS 3 Zrotation Xrotation Yrotation
      JOINT RightShoulder
      {
        OFFSET -8.99 -0.362252 -0.22
        CHANNELS 3 Zrotation Xrotation Yrotation
        JOINT RightArm
        {
          OFFSET -10.2827 -0.00338 0.322123
          CHANNELS 3 Zrotation Xrotation Yrotation
          JOINT RightForeArm
          {
            OFFSET -26.364 0.099144 -1.42434
            CHANNELS 3 Zrotation Xrotation Yrotation
            JOINT RightHand
            {
              OFFSET -22.0324 0.085362 1.02216
              CHANNELS 3 Zrotation Xrotation Yrotation
              End Site
              {
                OFFSET -13.3284 -0.6 1.50291
              }
            }
          }
        }
      }
      JOINT LeftShoulder1
      {
        OFFSET 8.99 -0.362252 -0.22
        CHANNELS 3 Zrotation Xrotation Yrotation
        JOINT LeftArm
        {
          OFFSET 10.2827 -0.00337999 0.322123
          CHANNELS 3 Zrotation Xrotation Yrotation
          JOINT LeftForeArm
          {
            OFFSET 26.2597 0.099144 -1.42434
            CHANNELS 3 Zrotation Xrotation Yrotation
            JOINT LeftHand
            {
              OFFSET 22.0902 0.085362 1.02216
              CHANNELS 3 Zrotation Xrotation Yrotation
              End Site
              {
                OFFSET 13.419 -0.6 1.50291
              }
            }
          }
        }
      }
      JOINT Head
      {
        OFFSET 0 8.73416 0.011341
        CHANNELS 3 Zrotation Xrotation Yrotation
        End Site
        {
          OFFSET -0.29 12.7742 2.51395
        }
      }
    }
  }
  JOINT RightUpLeg
  {
    OFFSET -8.9458 -8.66707 0.101652
    CHANNELS 3 Zrotation Xrotation Yrotation
    JOINT RightLeg
    {
      OFFSET 0 -44.4227 1.3727
      CHANNELS 3 Zrotation Xrotation Yrotation
      JOINT RightFoot
      {
        OFFSET 0.253549 -42.0924 -1.46059
        CHANNELS 3 Zrotation Xrotation Yrotation
        JOINT RightToes
        {
          OFFSET 0.04 -4.41509 8.4991
          CHANNELS 3 Zrotation Xrotation Yrotation
          End Site
          {
            OFFSET -0.08 -0.137448 9.77979
          }
        }
      }
    }
  }
}
MOTION
Frames:	21
Frame Time:	0.0333333
33.5577 102.249 -4.41082 -3.3445 -1.34446 -91.2188 0.906601 2.84803 4.14257 -0.463376 6.56604 29.6872 -5.82647 -9.43374 -0.049804 -1.30487e-009 8.75234e-006 -1.46797e-008 -3.16129 11.4329 -2.40639 1.25751 -5.51774 -2.85523 37.3539 1.7508 0.0302026 36.7925 -23.967 0.116251 9.28902 40.9978 4.87468 -5.71571 9.73375 -1.67293 -44.5109 3.72065 -3.76459 -28.9598 -11.4777 8.52418 1.84028 34.1581 -21.8968 5.82328 9.61819 -0.917488 3.59945 -12.4221 1.53985 -3.94239 4.65157 -6.38037 0.0316217 8.49839 -12.6868 5.51308 -12.5388 0.034385 0.0462048 0.000530889 0.662642 
33.5518 102.25 -4.38344 -3.44632 -1.34212 -91.3102 0.896036 2.99017 4.18006 -0.503599 6.49904 29.733 -5.46251 -9.43642 -0.0441588 -1.30487e-009 8.75234e-006 -1.46797e-008 -3.11376 11.3714 -2.46083 1.36501 -5.41802 -2.91819 37.2358 1.74979 0.0276675 37.0165 -23.175 0.52126 8.90196 39.7282 5.9227 -5.78631 9.72899 -1.64565 -44.6068 3.72369 -3.75554 -28.7066 -11.4825 8.56077 1.41734 34.3293 -21.3652 5.82328 9.61819 -0.917488 3.46487 -12.1839 1.64979 -3.98317 4.78226 -6.4374 0.0368752 8.4339 -12.5038 5.58977 -12.4629 0.0330231 0.0462048 0.000530889 0.662642 
33.5463 102.25 -4.33112 -3.52304 -1.33257 -91.4389 0.893534 3.08006 4.2596 -0.578629 6.49969 29.7691 -5.14965 -9.47551 -0.040913 -1.30487e-009 8.75234e-006 -1.46797e-008 -3.05679 11.2902 -2.47961 1.3454 -5.28525 -2.93193 37.2906 1.74878 0.0271657 37.3057 -22.4612 1.08312 8.43986 38.6064 6.97916 -5.63112 9.72641 -1.64078 -44.524 3.70818 -3.73823 -28.6467 -11.5242 8.5906 1.28286 34.5609 -21.145 5.82328 9.61819 -0.917488 3.39328 -11.9876 1.50615 -4.03607 4.87724 -6.49276 0.0553369 8.37209 -12.3224 5.63608 -12.4221 0.0277627 0.0462048 0.000530889 0.662642 
33.5927 102.248 -4.25236 -3.58537 -1.30105 -91.658 0.914547 3.1233 4.3592 -0.68602 6.53843 29.8968 -5.1688 -9.436 -0.0389734 -1.30487e-009 8.75234e-006 -1.46797e-008 -3.09552 11.3943 -2.43836 1.46148 -5.30456 -2.91102 37.2932 1.74779 0.0304769 37.7804 -21.4851 1.79251 7.9453 37.3822 8.11849 -5.50937 9.72573 -1.53876 -44.4205 3.69961 -3.73762 -28.6855 -11.7149 8.64747 1.38645 34.6884 -21.215 5.82328 9.61819 -0.917488 3.35897 -11.9338 1.46771 -4.05055 4.80461 -6.46933 0.00199784 8.49648 -12.1997 5.50519 -12.3648 0.022499 0.0462048 0.000530889 0.662642 
33.6633 102.246 -4.12468 -3.67136 -1.24509 -91.8801 0.929634 3.18041 4.43605 -0.782885 6.58543 30.0862 -5.45525 -9.36299 -0.0376585 -1.30487e-009 8.75234e-006 -1.46797e-008 -3.14343 11.6585 -2.36734 1.69482 -5.43658 -2.87568 37.0647 1.74691 0.0412893 38.4806 -19.9352 2.4831 7.43539 35.5774 9.4653 -5.51188 9.72722 -1.39907 -44.4526 3.71058 -3.75406 -28.6638 -11.728 8.65156 1.47913 34.4974 -21.3746 5.82328 9.61819 -0.917488 3.29298 -12.0002 1.57486 -4.04743 4.69689 -6.39464 -0.120141 8.69836 -12.0723 5.44489 -12.2895 0.0212212 0.0462048 0.000530889 0.662642 
33.6861 102.245 -3.95181 -3.77723 -1.20344 -91.9581 0.904325 3.24696 4.49527 -0.859522 6.67231 30.1722 -5.60217 -9.37981 -0.0367376 -1.30487e-009 8.75234e-006 -1.46797e-008 -3.0525 11.8358 -2.33038 1.71916 -5.51112 -2.83896 36.8763 1.7461 0.0506396 39.0916 -17.7561 2.93282 6.83307 33.167 11.1152 -5.44925 9.73135 -1.3906 -44.5304 3.71801 -3.75565 -28.5893 -11.3619 8.54824 1.48884 34.138 -21.5094 5.82328 9.61819 -0.917488 3.24094 -11.9792 1.52529 -4.0891 4.78433 -6.37589 -0.209204 8.67701 -11.9485 5.60571 -12.2485 0.0271369 0.0462048 0.000530889 0.662642 
33.6521 102.245 -3.78069 -3.85203 -1.20228 -91.8877 0.850497 3.268 4.56742 -0.942278 6.79595 30.0846 -5.4078 -9.46744 -0.0359645 -1.30487e-009 8.75234e-006 -1.46797e-008 -2.95489 11.7842 -2.33919 1.54834 -5.44737 -2.82691 36.9699 1.74429 0.0423384 39.4178 -15.2633 3.19467 6.15275 30.7057 12.87 -5.27478 9.73957 -1.45026 -44.5402 3.70828 -3.7363 -28.5362 -10.9142 8.40347 1.52939 33.8656 -21.6564 5.82328 9.61819 -0.917488 3.2865 -11.7774 1.27891 -4.16837 5.04405 -6.4232 -0.224303 8.38139 -11.9743 5.73005 -12.1853 0.0279105 0.0462048 0.000530889 0.662642 
33.6213 102.251 -3.63995 -3.8608 -1.21317 -91.8114 0.805716 3.23579 4.64027 -1.03265 6.86996 29.969 -5.1247 -9.48816 -0.0350809 -1.30487e-009 8.75234e-006 -1.46797e-008 -3.08832 11.6304 -2.3403 1.58551 -5.3267 -2.85281 37.0946 1.74212 0.0299263 39.6898 -12.8863 3.50647 5.55559 28.6798 14.3718 -5.1833 9.73897 -1.34785 -44.5512 3.70701 -3.73187 -28.4821 -10.7149 8.29622 1.62264 33.6531 -21.8375 5.82328 9.61819 -0.917488 3.35367 -11.5732 1.15406 -4.21957 5.22525 -6.43479 -0.241042 8.0878 -12.1412 5.6162 -12.0426 0.0172116 0.0462048 0.000530889 0.662642 
33.629 102.275 -3.49793 -3.83893 -1.18828 -91.8274 0.781036 3.22329 4.68143 -1.11169 6.82224 29.9818 -5.00049 -9.40276 -0.0338397 -1.30487e-009 8.75234e-006 -1.46797e-008 -3.30619 11.586 -2.30545 1.85544 -5.30114 -2.87272 37.0016 1.74098 0.0307522 40.0818 -10.8037 3.88534 5.15127 27.0261 15.5092 -5.25881 9.72639 -1.07684 -44.6115 3.72218 -3.75189 -28.4018 -10.6232 8.2224 1.72333 33.3582 -22.0561 5.82328 9.61819 -0.917488 3.2823 -11.5128 1.25953 -4.23169 5.23005 -6.38654 -0.306799 7.98321 -12.2014 5.49833 -11.918 0.00753522 0.0462048 0.000530889 0.662642 
33.6494 102.291 -3.32069 -3.85172 -1.14104 -91.8918 0.742317 3.2786 4.69928 -1.1856 6.71952 30.0752 -4.93135 -9.32717 -0.031963 -1.30487e-009 8.75234e-006 -1.46797e-008 -3.25973 11.6685 -2.26443 1.8732 -5.39556 -2.82739 36.9312 1.74248 0.0354656 40.3762 -9.05958 4.13891 4.87518 25.5975 16.4144 -5.41848 9.71044 -0.813596 -44.5982 3.72297 -3.7555 -28.3696 -10.3449 8.13368 1.89185 33.0431 -22.3766 5.82328 9.61819 -0.917488 3.09708 -11.4705 1.32624 -4.28196 5.17305 -6.37798 -0.364028 8.04475 -12.0668 5.63931 -11.8836 0.00928014 0.0462048 0.000530889 0.662642 
33.6554 102.292 -3.12691 -3.9051 -1.12235 -91.9069 0.662493 3.36291 4.6996 -1.25315 6.65327 30.1033 -4.76943 -9.32091 -0.0291126 -1.30487e-009 8.75234e-006 -1.46797e-008 -2.98011 11.7101 -2.25634 1.52453 -5.44754 -2.74869 37.1039 1.74845 0.0370494 40.4215 -7.74816 4.23991 4.63263 24.5958 17.1326 -5.65055 9.69232 -0.590562 -44.4731 3.697 -3.72433 -28.398 -9.93057 8.01367 2.15292 32.7936 -22.8022 5.82328 9.61819 -0.917488 2.98539 -11.3155 1.21471 -4.40225 5.15258 -6.45968 -0.36288 8.16113 -11.9708 5.84645 -11.8016 0.00608897 0.0462048 0.000530889 0.662642 
33.6605 102.303 -2.95358 -3.94787 -1.1321 -91.8417 0.553672 3.40299 4.64625 -1.26789 6.63123 30.0549 -4.60859 -9.30584 -0.0263705 -1.30487e-009 8.75234e-006 -1.46797e-008 -2.84159 11.6574 -2.27494 1.32653 -5.37031 -2.72997 37.2172 1.75361 0.0387926 40.4774 -6.89168 4.33391 4.43296 24.1859 17.5776 -5.88719 9.67397 -0.385957 -44.4363 3.68301 -3.70274 -28.3399 -9.60715 7.90828 2.34736 32.495 -23.1812 5.82328 9.61819 -0.917488 3.00503 -11.1816 1.1467 -4.51944 5.18607 -6.54612 -0.349688 8.17587 -12.0315 5.8455 -11.6186 0.00212742 0.0462048 0.000530889 0.662642 
33.6877 102.322 -2.80753 -3.94747 -1.13684 -91.7615 0.440079 3.35587 4.54107 -1.21692 6.65335 30.0459 -4.53302 -9.2466 -0.02341 -1.30487e-009 8.75234e-006 -1.46797e-008 -2.95526 11.6494 -2.27593 1.51013 -5.31643 -2.76905 36.9975 1.75605 0.0554582 40.7371 -6.46838 4.42805 4.32978 24.2063 17.7235 -5.83333 9.67478 -0.351286 -44.6064 3.70783 -3.72474 -28.1122 -9.41256 7.86279 2.36674 32.122 -23.381 5.82328 9.61819 -0.917488 3.02799 -11.2174 1.27825 -4.57921 5.26378 -6.54702 -0.38536 7.99372 -12.069 5.79772 -11.5124 0.000798634 0.0462048 0.000530889 0.662642 
33.7349 102.325 -2.67514 -3.90148 -1.12792 -91.7398 0.344165 3.23747 4.45509 -1.17701 6.69802 30.1256 -4.40175 -9.20019 -0.0197698 -1.30487e-009 8.75234e-006 -1.46797e-008 -2.99502 11.6876 -2.23722 1.59342 -5.35601 -2.75178 36.7818 1.7575 0.064135 40.9217 -6.59892 4.42643 4.35284 24.5119 17.576 -5.37734 9.7032 -0.581564 -44.7582 3.73602 -3.75599 -27.8813 -9.3066 7.81404 2.33549 31.9327 -23.4321 5.82328 9.61819 -0.917488 2.98876 -11.3095 1.41373 -4.61192 5.28503 -6.49285 -0.446559 7.77927 -12.0476 5.89284 -11.4563 0.00105431 0.0462048 0.000530889 0.662642 
33.7896 102.32 -2.54312 -3.81262 -1.11103 -91.7535 0.278083 3.11519 4.40843 -1.20296 6.64783 30.2239 -4.10555 -9.15617 -0.0144216 -1.30487e-009 8.75234e-006 -1.46797e-008 -2.71017 11.5915 -2.20147 1.22252 -5.31719 -2.64015 36.972 1.7581 0.0429756 40.7444 -7.41791 4.36668 4.52947 25.1985 17.0688 -4.927 9.73102 -0.853295 -44.6288 3.71993 -3.74478 -27.8559 -9.31511 7.66938 2.38752 32.0524 -23.4444 5.82328 9.61819 -0.917488 2.97349 -11.3084 1.35564 -4.65459 5.11503 -6.48501 -0.469699 7.80663 -12.1406 5.84546 -11.2074 -0.0116537 0.0462048 0.000530889 0.662642 
33.8553 102.338 -2.39708 -3.73794 -1.10165 -91.7293 0.199548 3.05659 4.33314 -1.2372 6.47608 30.2931 -3.77191 -9.05713 -0.00729581 -1.30487e-009 8.75234e-006 -1.46797e-008 -2.31181 11.4629 -2.21605 0.758881 -5.22087 -2.54609 37.3275 1.75799 0.0192874 40.4006 -8.82101 4.32181 4.86762 26.3659 16.1858 -4.89462 9.73677 -0.91258 -44.3267 3.67499 -3.70406 -28.0092 -9.35789 7.54259 2.49287 32.1972 -23.5165 5.82328 9.61819 -0.917488 3.01551 -11.2688 1.24849 -4.72964 4.87912 -6.56973 -0.451019 7.98881 -12.2204 5.52901 -10.9194 -0.034046 0.0462048 0.000530889 0.662642 
33.9497 102.354 -2.2327 -3.78784 -1.13331 -91.699 0.0424724 3.07382 4.2226 -1.22672 6.38885 30.3819 -3.54892 -8.97371 -0.00241047 -1.30487e-009 8.75234e-006 -1.46797e-008 -2.16719 11.6309 -2.23957 0.653388 -5.30107 -2.5415 37.3604 1.75731 0.0282507 40.2239 -10.6015 4.28167 5.30973 27.992 15.0375 -5.09429 9.73896 -0.846838 -44.201 3.65702 -3.68832 -28.127 -9.28443 7.61124 2.56938 32.1388 -23.6522 5.82328 9.61819 -0.917488 2.98798 -11.2443 1.31789 -4.88002 4.87864 -6.69928 -0.441105 7.98095 -11.9884 5.48523 -10.9525 -0.0337363 0.0462048 0.000530889 0.662642 
34.0788 102.336 -2.06667 -3.9385 -1.19035 -91.7611 -0.14038 3.1094 4.16981 -1.23041 6.47275 30.5159 -3.40747 -8.99873 -0.0013783 -1.30487e-009 8.75234e-006 -1.46797e-008 -2.23561 11.8697 -2.19739 0.777132 -5.28156 -2.5371 37.1184 1.75615 0.053945 40.1888 -12.7544 4.35541 5.78937 30.0546 13.7117 -5.11056 9.73867 -0.856147 -44.3862 3.68367 -3.71177 -28.0492 -9.1729 7.68496 2.54555 32.0294 -23.6775 5.82328 9.61819 -0.917488 2.79638 -11.1656 1.47639 -5.07385 5.03966 -6.79304 -0.45396 7.81259 -11.6769 5.88983 -11.0229 -0.0189826 0.0462048 0.000530889 0.662642 
34.2166 102.326 -1.91543 -3.9387 -1.18441 -91.8636 -0.207526 3.02364 4.18113 -1.29855 6.48713 30.6177 -3.26755 -9.0319 -0.000479987 -1.30487e-009 8.75234e-006 -1.46797e-008 -2.12827 11.474 -2.12782 0.737588 -4.55886 -2.45677 37.0338 1.75168 0.050341 40.0872 -15.2095 4.67329 6.25561 32.3182 12.3264 -4.92508 9.73748 -0.90113 -44.6775 3.72108 -3.73935 -27.7924 -9.17152 7.43188 2.3748 31.9953 -23.4589 5.82328 9.61819 -0.917488 2.54976 -11.1219 1.47051 -5.16921 4.9088 -6.80216 -0.463811 7.82715 -11.7532 5.97337 -10.6744 -0.0321901 0.0462048 0.000530889 0.662642 
34.3004 102.367 -1.78157 -3.58103 -1.11385 -91.8374 -0.175372 2.67864 4.11977 -1.35951 6.28149 30.6546 -3.10745 -8.92844 0.00360091 -1.30487e-009 8.75234e-006 -1.46797e-008 -1.76772 10.4865 -2.12996 0.505832 -3.51124 -2.37659 37.1996 1.74296 0.0161479 39.838 -17.3238 4.83295 6.57626 34.0038 11.2866 -4.79412 9.73704 -0.886207 -44.8355 3.7358 -3.74555 -27.5263 -9.1222 7.15186 2.18039 31.8899 -23.2457 5.82328 9.61819 -0.917488 2.43824 -11.3419 1.30141 -5.11568 4.45779 -6.72274 -0.480631 7.79445 -12.0238 5.53912 -10.3015 -0.0601085 0.0462048 0.000530889 0.662642 
34.2376 102.4 -1.68026 -2.96262 -1.13289 -91.7229 -0.25925 2.12332 3.92258 -1.34459 6.06649 30.7561 -2.93267 -8.78397 0.00820641 -1.30487e-009 8.75234e-006 -1.46797e-008 -1.64868 9.78909 -2.15708 0.404055 -3.33374 -2.3688 37.3325 1.73767 -0.00716822 39.3687 -18.3958 4.11793 6.64936 34.5108 10.9475 -4.84912 9.73584 -0.901492 -44.8397 3.7341 -3.74882 -27.45 -8.8211 7.63306 2.19864 31.6161 -23.4103 5.82328 9.61819 -0.917488 2.48191 -11.7578 1.19826 -5.1071 4.0905 -6.59642 -0.537968 7.29697 -12.0562 5.60337 -10.4069 -0.0537098 0.0462048 0.000530889 0.662642 
